<svg id="visual" viewBox="0 0 1400 400" width="1400" height="400" xmlns="http://www.w3.org/2000/svg" xmlns:xlink="http://www.w3.org/1999/xlink" version="1.1"><path d="M0 271L33.3 274.2C66.7 277.3 133.3 283.7 200 286.3C266.7 289 333.3 288 400 281.2C466.7 274.3 533.3 261.7 600 253.2C666.7 244.7 733.3 240.3 800 247.7C866.7 255 933.3 274 1000 278.2C1066.7 282.3 1133.3 271.7 1200 263.2C1266.7 254.7 1333.3 248.3 1366.7 245.2L1400 242L1400 401L1366.7 401C1333.3 401 1266.7 401 1200 401C1133.3 401 1066.7 401 1000 401C933.3 401 866.7 401 800 401C733.3 401 666.7 401 600 401C533.3 401 466.7 401 400 401C333.3 401 266.7 401 200 401C133.3 401 66.7 401 33.3 401L0 401Z" fill="#fa7268"></path><path d="M0 318L33.3 317.7C66.7 317.3 133.3 316.7 200 311.3C266.7 306 333.3 296 400 288C466.7 280 533.3 274 600 276.8C666.7 279.7 733.3 291.3 800 295.2C866.7 299 933.3 295 1000 291.3C1066.7 287.7 1133.3 284.3 1200 284.8C1266.7 285.3 1333.3 289.7 1366.7 291.8L1400 294L1400 401L1366.7 401C1333.3 401 1266.7 401 1200 401C1133.3 401 1066.7 401 1000 401C933.3 401 866.7 401 800 401C733.3 401 666.7 401 600 401C533.3 401 466.7 401 400 401C333.3 401 266.7 401 200 401C133.3 401 66.7 401 33.3 401L0 401Z" fill="#ef5f67"></path><path d="M0 313L33.3 316.2C66.7 319.3 133.3 325.7 200 323.5C266.7 321.3 333.3 310.7 400 306.7C466.7 302.7 533.3 305.3 600 311.8C666.7 318.3 733.3 328.7 800 327.5C866.7 326.3 933.3 313.7 1000 307.3C1066.7 301 1133.3 301 1200 305C1266.7 309 1333.3 317 1366.7 321L1400 325L1400 401L1366.7 401C1333.3 401 1266.7 401 1200 401C1133.3 401 1066.7 401 1000 401C933.3 401 866.7 401 800 401C733.3 401 666.7 401 600 401C533.3 401 466.7 401 400 401C333.3 401 266.7 401 200 401C133.3 401 66.7 401 33.3 401L0 401Z" fill="#e34c67"></path><path d="M0 346L33.3 347.8C66.7 349.7 133.3 353.3 200 355.5C266.7 357.7 333.3 358.3 400 355.8C466.7 353.3 533.3 347.7 600 344.2C666.7 340.7 733.3 339.3 800 342.5C866.7 345.7 933.3 353.3 1000 353C1066.7 352.7 1133.3 344.3 1200 339.7C1266.7 335 1333.3 334 1366.7 333.5L1400 333L1400 401L1366.7 401C1333.3 401 1266.7 401 1200 401C1133.3 401 1066.7 401 1000 401C933.3 401 866.7 401 800 401C733.3 401 666.7 401 600 401C533.3 401 466.7 401 400 401C333.3 401 266.7 401 200 401C133.3 401 66.7 401 33.3 401L0 401Z" fill="#d53867"></path><path d="M0 362L33.3 361.3C66.7 360.7 133.3 359.3 200 357.7C266.7 356 333.3 354 400 356C466.7 358 533.3 364 600 365.5C666.7 367 733.3 364 800 362.7C866.7 361.3 933.3 361.7 1000 363.5C1066.7 365.3 1133.3 368.7 1200 368.8C1266.7 369 1333.3 366 1366.7 364.5L1400 363L1400 401L1366.7 401C1333.3 401 1266.7 401 1200 401C1133.3 401 1066.7 401 1000 401C933.3 401 866.7 401 800 401C733.3 401 666.7 401 600 401C533.3 401 466.7 401 400 401C333.3 401 266.7 401 200 401C133.3 401 66.7 401 33.3 401L0 401Z" fill="#c62368"></path></svg>